# xmcd
#
# Track frame offsets:
# 150
# 12937
# 27922
# 39527
# 48245
# 61505
# 76380
# 89850
# 106322
# 116670
# 131147
#
# Disc length: 1922 seconds
#
# Revision: 0
# Processed by: cddbd v1.4PL0 Copyright (c) Steve Scherf et al.
# Submitted via: Audion 3.0.2 (http://www.panic.com/audion/)
#
DISCID=8b07800b
DTITLE=Biscuit Fan - Biscuit Fan
DYEAR=1900
DGENRE=
TTITLE0=She's Got a Tiny Tiny Yellow Monster
TTITLE1=She Must be an Angel
TTITLE2=Friend
TTITLE3=Dancing in the Park
TTITLE4=We are Going to be Happy When She smiles
TTITLE5=Something is Going on around
TTITLE6=Yellow Dress
TTITLE7=Everything Will be Alright Because My Baby Holds Me Tight
TTITLE8=the Theme from Biscuit Fan
TTITLE9=A Peaceful Life
TTITLE10=Waltz for G
EXTD=
EXTT0=
EXTT1=
EXTT2=
EXTT3=
EXTT4=
EXTT5=
EXTT6=
EXTT7=
EXTT8=
EXTT9=
EXTT10=
PLAYORDER=
